<?xml version="1.0" encoding="UTF-8"?>
<svg id="Layer_2" data-name="Layer 2" xmlns="http://www.w3.org/2000/svg" viewBox="0 0 401.17 64.3">
  <defs>
    <style>
      .cls-1 {
        fill: #f55;
      }
    </style>
  </defs>
  <g id="Layer_1-2" data-name="Layer 1">
    <g>
      <g>
        <path d="M0,2.31h8.1v51.87h19.53v8.1H0V2.31Z"/>
        <path d="M35.77,2.31h8.1v59.97h-8.1V2.31Z"/>
        <path d="M58.23,2.31h8.1v51.87h19.53v8.1h-27.63V2.31Z"/>
        <path d="M92.92,2.4h8.19v36.86c0,5.46,1.31,9.68,3.93,12.66,2.62,2.98,6.33,4.47,11.13,4.47s8.48-1.37,11.13-4.12c2.65-2.75,3.98-6.61,3.98-11.6V2.4h8.19v37.7c0,7.34-2.09,13.21-6.28,17.61-4.19,4.39-9.77,6.59-16.73,6.59s-12.83-2.23-17.11-6.68c-4.28-4.46-6.43-11.03-6.43-19.72V2.4Z"/>
        <path d="M199.91,4.38v9.27c-6.46-3.17-12.41-4.75-17.84-4.75-6.97,0-12.83,2.25-17.6,6.75-4.77,4.5-7.15,10.02-7.15,16.58s2.44,12.25,7.32,16.72c4.88,4.47,10.99,6.7,18.33,6.7,5.33,0,10.98-1.68,16.95-5.04v9.37c-5.43,2.89-11.31,4.33-17.65,4.33-9.29,0-17.23-3.14-23.82-9.43s-9.88-13.87-9.88-22.74,3.24-16.18,9.72-22.39c6.48-6.21,14.29-9.31,23.42-9.31,5.87,0,11.94,1.32,18.22,3.95Z"/>
        <path d="M232.04,0l28.31,62.27h-8.58l-6.96-15.35h-25.45l-6.88,15.35h-8.52L232.04,0ZM232.01,18.72l-9.59,21.39h19.29l-9.7-21.39Z"/>
      </g>
      <g>
        <path class="cls-1" d="M312.91,11.91c-.04.21-.12.39-.25.52-.13.13-.26.27-.39.4s-.26.27-.39.4c-.13.14-.2.31-.22.52-.06.44-.29.8-.69,1.08-.41.28-.88.42-1.42.42-.46,0-1.23-.03-2.31-.09s-2.31-.09-3.7-.09c-1.54,0-3.13.06-4.75.17-1.63.12-3.21.3-4.75.55-1.54.25-2.99.58-4.35.98s-2.55.9-3.57,1.49c-1.02.59-1.83,1.27-2.43,2.04-.6.77-.9,1.65-.9,2.63,0,1.39.23,2.61.69,3.67.46,1.06.98,1.96,1.55,2.72.57.75,1.08,1.35,1.55,1.79s.69.74.69.9c0,.17-.12.33-.38.46-.25.13-.62.2-1.1.2-1.08,0-2.05-.24-2.92-.71-.87-.47-1.61-1.1-2.24-1.88s-1.11-1.67-1.44-2.67c-.34-1-.51-2.04-.51-3.12,0-1.66.39-3.22,1.17-4.7s1.86-2.8,3.24-3.97c1.38-1.17,2.99-2.19,4.84-3.03,1.85-.85,3.84-1.47,5.98-1.88,2.52-.48,4.84-.79,6.96-.94s4.02-.22,5.69-.22c1.54,0,2.75.05,3.64.16.89.11,1.55.24,1.98.39s.7.32.81.5c.11.18.16.35.16.51,0,.12-.03.23-.1.35-.07.12-.12.26-.16.43ZM295.92,17.95c0,.1,0,.4-.03.91s-.05,1.17-.09,1.99c-.04.82-.08,1.76-.13,2.83-.05,1.07-.11,2.22-.17,3.44-.07,1.22-.14,2.5-.2,3.83-.07,1.33-.13,2.66-.19,3.99,1.1.02,2.11.08,3.05.19.93.11,1.77.22,2.5.33.64.12,1.15.22,1.55.32.39.1.71.19.95.27s.42.18.55.29c.13.11.24.23.33.36.08.12.19.22.33.3s.28.17.42.26.25.18.35.27c.1.1.14.21.14.35,0,.15-.05.29-.16.42-.11.13-.24.21-.39.25-.17.06-.58.11-1.21.14s-1.61.09-2.92.14c-.71.04-1.57.07-2.57.09-1,.02-2.04.05-3.12.09-.06,1.18-.12,2.29-.19,3.35-.07,1.06-.13,2.02-.17,2.88-.05.86-.09,1.58-.13,2.18-.04.6-.07,1.03-.09,1.3-.06.75-.23,1.65-.51,2.7-.28,1.05-.72,2.14-1.33,3.27-.61,1.13-1.4,2.24-2.38,3.34-.98,1.1-2.22,2.07-3.73,2.92-.27.13-.47.2-.61.2-.29,0-.43-.12-.43-.35,0-.15.11-.36.32-.61.67-.71,1.23-1.41,1.68-2.1s.8-1.46,1.08-2.33.49-1.87.64-3.02c.14-1.15.26-2.53.36-4.15.02-.46.05-1.12.09-1.96.04-.73.09-1.7.14-2.9.06-1.2.13-2.74.23-4.61-1.33.04-2.31.1-2.93.19s-1.01.16-1.14.22c-.12.04-.18.1-.19.19,0,.09-.02.17-.04.26-.02.09-.06.16-.12.23-.06.07-.18.1-.38.1-.13,0-.3-.03-.51-.09-.2-.06-.39-.14-.58-.25-.18-.11-.34-.23-.48-.38s-.2-.3-.2-.48c0-.33.2-.71.61-1.16.1-.1.27-.26.53-.49s.63-.48,1.11-.74c.48-.26,1.09-.52,1.82-.78.73-.26,1.63-.48,2.69-.65l.75-13.93c.02-.25.05-.54.09-.88.04-.34.12-.66.25-.98.12-.32.32-.61.58-.87.26-.26.62-.44,1.08-.54.35-.08.65-.21.92-.39.27-.18.52-.37.74-.56s.42-.37.61-.52c.18-.15.35-.23.51-.23.08,0,.14.05.19.14.05.1.08.22.1.38s.03.32.03.51v.51Z"/>
        <path class="cls-1" d="M320.4,40.31c.12,0,.22.04.3.13s.13.21.13.36c0,.13-.03.27-.09.4-.39,1.12-.76,2.14-1.11,3.08s-.71,1.8-1.05,2.59c-.33.75-.64,1.4-.94,1.94-.3.54-.59.99-.87,1.36-.28.37-.56.66-.84.88-.28.22-.56.38-.85.48s-.63.14-1.01.14c-.42,0-.89-.09-1.39-.27s-.97-.54-1.4-1.05c-.43-.52-.79-1.25-1.08-2.18s-.43-2.15-.43-3.66c0-.41.02-1.09.07-2.05.05-.96.12-2.12.2-3.48.09-1.36.19-2.89.32-4.61.12-1.71.26-3.53.42-5.43.1-1.17.22-2.46.36-3.86s.29-2.76.45-4.09.31-2.55.46-3.67c.15-1.12.29-1.99.4-2.63.13-.67.39-1.2.78-1.59s.82-.8,1.3-1.24c.17-.17.36-.36.55-.56.19-.2.38-.39.58-.56.19-.17.38-.32.56-.45.18-.12.36-.19.53-.19.27,0,.4.13.4.4,0,.21-.05.6-.14,1.16-.1.56-.23,1.46-.4,2.69-.17,1.23-.38,2.89-.62,4.98-.24,2.09-.5,4.77-.77,8.05-.06.66-.13,1.44-.2,2.34-.08.91-.15,1.86-.23,2.88-.08,1.01-.15,2.04-.22,3.09s-.13,2.04-.19,2.98c-.06.93-.11,1.79-.14,2.56-.04.77-.06,1.39-.06,1.85,0,1.33.14,2.38.42,3.14.28.76.75,1.14,1.4,1.14.37,0,.69-.16.98-.49.29-.33.57-.77.84-1.34.27-.57.55-1.23.84-1.99s.61-1.58.95-2.47c.1-.23.21-.41.35-.54.13-.12.28-.19.43-.19Z"/>
        <path class="cls-1" d="M325.92,49.21c.46,0,.87-.15,1.21-.46.35-.31.64-.71.88-1.21.24-.5.44-1.08.59-1.75.15-.66.27-1.35.35-2.07-.56-.39-1.1-.89-1.63-1.5-.53-.62-1.01-1.37-1.43-2.25-.25-.52-.43-1.05-.55-1.6-.12-.55-.17-1.07-.17-1.58,0-.64.09-1.23.26-1.79.17-.56.43-1.04.77-1.44.34-.41.76-.73,1.26-.97.5-.24,1.08-.36,1.73-.36.83,0,1.51.2,2.04.59.53.4.95.9,1.26,1.5.31.61.52,1.27.65,1.98.12.71.19,1.38.19,1.99,0,.81-.05,1.64-.16,2.48-.11.85-.27,1.71-.51,2.57.71-.06,1.35-.25,1.91-.59.56-.34,1.03-.91,1.42-1.72.23-.48.47-.72.72-.72.13,0,.25.04.36.12.11.08.16.2.16.38,0,.13-.03.27-.09.4-.39,1.1-1.03,1.96-1.92,2.6s-1.89.95-2.99.95c-.33.94-.73,1.83-1.2,2.67-.47.84-1.03,1.58-1.66,2.21s-1.36,1.14-2.17,1.5c-.81.37-1.71.55-2.69.55-.52,0-1.11-.08-1.76-.23-.66-.15-1.27-.48-1.85-.97s-1.06-1.19-1.46-2.08c-.4-.9-.59-2.08-.59-3.57,0-1.21.23-2.5.68-3.84.45-1.35,1.21-2.69,2.27-4.02.4-.5.78-.86,1.11-1.07s.61-.32.82-.32c.42,0,.64.26.64.78,0,.23-.08.52-.23.87s-.32.79-.49,1.33c-.17.54-.34,1.18-.49,1.92-.15.74-.23,1.61-.23,2.62,0,1.93.27,3.42.82,4.49.55,1.07,1.28,1.6,2.18,1.6ZM329.12,40.72c0-1.96-.18-3.38-.55-4.23-.37-.86-.77-1.2-1.21-1.03-.19.08-.3.25-.33.52-.03.27-.04.53-.04.78,0,.42.06.87.17,1.33.12.46.26.92.45,1.39.18.46.4.9.66,1.31.26.42.54.79.82,1.14.02-.21.03-.41.03-.61v-.61Z"/>
        <path class="cls-1" d="M362.01,41.21c-.38,1.12-.96,1.99-1.73,2.62s-1.65.94-2.63.94c-.5,0-.98-.07-1.44-.2-.48,1.08-1.04,2.06-1.68,2.95-.64.89-1.3,1.65-1.98,2.3-.68.65-1.36,1.15-2.04,1.5-.67.36-1.3.54-1.88.54-.27,0-.49-.07-.67-.22-.17-.14-.37-.36-.58-.65-.21-.27-.45-.65-.71-1.13-.26-.48-.53-1.06-.79-1.73-.91,1.16-1.84,2.07-2.8,2.73-.96.66-1.84,1-2.63,1-.27,0-.49-.07-.67-.22-.17-.14-.37-.36-.58-.65-.23-.35-.52-.84-.87-1.47s-.68-1.43-1-2.38c-.32-.95-.59-2.08-.81-3.38-.22-1.3-.33-2.79-.33-4.46,0-.79.04-1.45.13-1.98.09-.53.19-.97.3-1.32.12-.35.24-.62.38-.82.13-.2.26-.36.38-.48s.22-.22.32-.3c.1-.09.18-.13.26-.13.12,0,.22.05.32.16.1.11.19.16.29.16.08,0,.19-.05.35-.14.15-.1.31-.2.48-.32.16-.12.33-.22.49-.32.16-.1.29-.14.39-.14s.19.05.27.16c.09.11.13.29.13.56s-.02.52-.06.74c-.04.22-.08.49-.13.81-.05.32-.09.71-.13,1.17-.04.46-.06,1.06-.06,1.79,0,2.16.22,4.17.66,6.04s1.06,3.4,1.85,4.59c.31-.44.66-1.01,1.05-1.71s.76-1.62,1.08-2.77c-.17-.81-.31-1.68-.42-2.62-.11-.93-.16-1.98-.16-3.13,0-.79.04-1.45.13-1.98.09-.53.19-.97.3-1.32s.24-.62.38-.82c.13-.2.26-.36.38-.48s.22-.22.32-.3c.1-.09.18-.13.26-.13.12,0,.22.05.32.16.1.11.19.16.29.16.08,0,.19-.05.35-.14.15-.1.31-.2.48-.32.16-.12.33-.22.49-.32.16-.1.29-.14.39-.14s.19.05.28.16c.09.11.13.29.13.56s-.02.52-.06.74c-.04.22-.08.49-.13.81-.05.32-.09.71-.13,1.17-.04.46-.06,1.06-.06,1.79,0,2.16.22,4.17.67,6.04.44,1.87,1.06,3.4,1.85,4.59.19-.27.41-.59.65-.97.24-.38.48-.82.72-1.34.24-.52.46-1.13.67-1.83.2-.7.38-1.52.53-2.44-.35-.37-.69-.79-1.03-1.29-.34-.49-.65-1.04-.94-1.66-.25-.52-.43-1.05-.55-1.6-.12-.55-.17-1.07-.17-1.58,0-.6.08-1.17.25-1.71.16-.54.38-1.01.66-1.4s.61-.71,1-.94c.38-.23.8-.35,1.24-.35,1.06,0,1.94.48,2.64,1.43.7.95,1.05,2.29,1.05,4,0,.96-.09,1.9-.27,2.82-.18.92-.43,1.81-.74,2.67.35.1.67.14.98.14.69,0,1.32-.2,1.88-.61.56-.4.99-1.01,1.3-1.82.17-.48.41-.72.72-.72.12,0,.23.04.33.12.11.08.16.19.16.35,0,.12-.03.26-.09.43ZM352.42,36.82c0,.64.12,1.32.36,2.04.24.72.58,1.4,1.03,2.04.04-.39.07-.79.09-1.23.02-.43.03-.89.03-1.37,0-.96-.06-1.77-.17-2.41-.12-.65-.33-.96-.64-.94-.16,0-.28.06-.38.19-.1.13-.17.29-.22.48-.05.19-.08.39-.09.61s-.01.41-.01.61Z"/>
        <path class="cls-1" d="M375.27,40.31c.12,0,.22.04.3.12.09.08.13.19.13.35s-.03.3-.09.43c-.29.81-.6,1.57-.94,2.28s-.65,1.35-.94,1.91c-.35.64-.68,1.23-1.01,1.79-.4.64-.85,1.24-1.34,1.81s-1.03,1.07-1.6,1.5c-.58.43-1.2.77-1.88,1.03-.67.25-1.39.38-2.14.38-.56,0-1.17-.1-1.83-.29-.67-.19-1.28-.55-1.85-1.07s-1.04-1.23-1.42-2.14c-.38-.91-.56-2.07-.56-3.5,0-.66.06-1.32.19-1.99.13-.67.3-1.32.52-1.94.22-.62.47-1.19.75-1.73.28-.54.56-1.01.85-1.42.5-.69,1.03-1.34,1.59-1.95.56-.61,1.12-1.14,1.69-1.59.57-.45,1.12-.8,1.66-1.05.54-.25,1.04-.38,1.5-.38.73,0,1.37.28,1.92.84.55.56.82,1.36.82,2.4,0,.91-.23,1.84-.69,2.82-.46.97-1.04,1.92-1.73,2.85-.69.92-1.43,1.78-2.22,2.57s-1.51,1.45-2.17,1.96c.35.87.79,1.5,1.33,1.91.54.4,1.09.61,1.65.61.87,0,1.64-.28,2.33-.84.68-.56,1.3-1.24,1.85-2.05.55-.81,1.03-1.66,1.45-2.54.41-.89.78-1.67,1.11-2.34.12-.23.23-.41.35-.54.12-.12.26-.19.43-.19ZM364.03,41.7c0,1.14.09,2.14.26,3.01.38-.39.77-.82,1.17-1.32.39-.49.75-1,1.07-1.52.32-.52.58-1.05.78-1.59.2-.54.3-1.06.3-1.56,0-.77-.16-1.37-.49-1.79-.33-.42-.65-.64-.98-.64-.19,0-.41.12-.65.36-.24.24-.47.59-.69,1.05-.22.46-.4,1.03-.55,1.69-.14.66-.22,1.43-.22,2.3Z"/>
        <path class="cls-1" d="M388.59,41.21c-.44,1.5-.9,2.89-1.36,4.16-.46,1.27-.95,2.37-1.47,3.29-.52.92-1.09,1.65-1.72,2.17-.63.52-1.33.78-2.12.78-.96,0-1.74-.49-2.33-1.46-.59-.97-.88-2.26-.88-3.86,0-.69.03-1.35.1-1.96.07-.62.14-1.21.23-1.79.09-.58.16-1.14.23-1.68.07-.54.1-1.07.1-1.59,0-.56-.07-.92-.2-1.1-.14-.17-.31-.26-.52-.26-.04,0-.08,0-.12.01-.04,0-.11.02-.22.03-.11,0-.26.03-.46.06-.2.03-.48.06-.82.1-.21.46-.39.85-.52,1.17-.13.32-.25.59-.35.82-.1.23-.18.43-.25.59-.07.16-.13.33-.19.51-.15.37-.29.59-.4.68-.12.09-.25.13-.4.13-.12,0-.22-.05-.3-.14s-.13-.23-.13-.4c0-.12.03-.26.09-.42.06-.16.13-.38.22-.64.09-.26.18-.59.29-1,.11-.41.22-.91.33-1.5-.39-.17-.72-.58-1-1.23-.28-.64-.42-1.4-.42-2.27,0-.71.12-1.43.36-2.17.24-.73.54-1.4.9-2.01.36-.61.74-1.1,1.16-1.49.41-.39.78-.58,1.11-.58.42,0,.78.25,1.08.77.3.51.45,1.09.45,1.75,0,.35-.04.7-.12,1.05-.08.36-.16.68-.25.98-.09.3-.17.57-.25.81-.08.24-.12.43-.12.56,0,.17.07.26.2.26.1,0,.27-.05.52-.14l1.42-.64c.52-.21.96-.32,1.33-.32.62,0,1.03.19,1.23.58.2.38.3.95.3,1.7,0,.33-.04.9-.12,1.72-.08.82-.16,1.72-.25,2.72s-.16,1.98-.23,2.96-.1,1.78-.1,2.4c0,.67.07,1.17.22,1.49.14.32.46.48.94.48.35,0,.69-.2,1.03-.61.34-.4.66-.91.97-1.53.31-.62.6-1.29.88-2.02s.54-1.44.77-2.11c.17-.48.42-.72.75-.72.31,0,.46.17.46.52,0,.06,0,.12-.01.17-.01.06-.02.13-.04.2Z"/>
        <path class="cls-1" d="M396.14,46.79l.4-.35c.4-.37.92-.97,1.55-1.82s1.25-2.04,1.86-3.58c.21-.48.48-.72.81-.72.27,0,.4.15.4.46,0,.12-.03.26-.09.43-.44,1.25-.92,2.32-1.43,3.21-.51.89-1.04,1.64-1.58,2.25s-1.07,1.11-1.6,1.49c-.53.38-1.03.66-1.49.85-.5.75-1.08,1.4-1.75,1.95-.67.55-1.44.82-2.33.82-.58,0-1.07-.12-1.47-.38-.41-.25-.73-.56-.98-.92-.25-.37-.43-.77-.55-1.2-.12-.43-.17-.82-.17-1.17,0-.65.08-1.24.25-1.76.16-.52.36-.96.59-1.33.23-.37.48-.64.74-.82.26-.18.48-.27.65-.27.23,0,.46.19.69.58.23.38.48.92.75,1.62.38,1.04.71,1.79.98,2.25.29-.04.57-.08.84-.13s.54-.12.81-.22c.13-.27.2-.51.2-.72,0-.35-.1-.76-.29-1.23-.19-.47-.44-.97-.74-1.5-.3-.53-.63-1.07-1-1.62-.37-.55-.73-1.07-1.08-1.56-.36-.49-.69-.94-1-1.36-.31-.41-.55-.76-.72-1.03-.13.44-.25.82-.35,1.14-.1.32-.19.59-.29.82-.13.39-.26.64-.36.77s-.25.19-.42.19c-.31,0-.46-.18-.46-.55,0-.13.02-.26.06-.38.15-.5.28-.95.39-1.34.11-.39.2-.73.27-1,.08-.33.14-.61.2-.84-.33-.4-.62-.87-.88-1.4-.26-.53-.39-1.21-.39-2.04,0-.6.11-1.26.33-1.98.22-.72.51-1.4.85-2.02.35-.62.73-1.15,1.14-1.57.41-.42.81-.64,1.2-.64.23,0,.44.07.62.22.18.14.34.33.46.56.12.23.22.5.29.79.07.3.1.59.1.88,0,.66-.12,1.4-.35,2.22-.02.08-.04.19-.07.33-.03.14-.04.29-.04.45,0,.66.37,1.34,1.1,2.34.73,1,1.65,2.13,2.75,3.38.52.6.9,1.23,1.13,1.89.23.66.35,1.43.35,2.3,0,.27-.03.56-.09.88-.06.32-.12.58-.2.79l-.61,1.56Z"/>
      </g>
    </g>
  </g>
</svg>